<svg xmlns="http://www.w3.org/2000/svg" width="100" height="100"><g fill="#898889"><path d="M3.52 21.213h92.977v-8.727H3.52v8.727zm92.977 3.64H3.52V46.49h92.977V24.854zM99.398 100H0h13.48H.016V8.778H100V100H85.918h13.48zm-2.9-27.821V50.132H3.52V96.36h92.977V72.18zm-12.9-42.31c2.956 0 5.29 2.54 5.29 5.632 0 3.158-2.334 5.63-5.29 5.63-2.952 0-5.357-2.472-5.357-5.63 0-3.093 2.405-5.633 5.358-5.633zm-66.424 0c2.885 0 5.29 2.54 5.29 5.632 0 3.158-2.405 5.63-5.29 5.63-2.955 0-5.359-2.472-5.359-5.63 0-3.093 2.404-5.633 5.359-5.633z"/><path d="M62.023 29.868c-2.953 0-5.356 2.54-5.356 5.633 0 3.158 2.403 5.63 5.356 5.63 2.956 0 5.291-2.472 5.291-5.63 0-3.093-2.335-5.633-5.29-5.633zm-23.428 0c-2.953 0-5.357 2.54-5.357 5.633 0 3.158 2.404 5.63 5.357 5.63 2.956 0 5.29-2.472 5.29-5.63 0-3.093-2.334-5.633-5.29-5.633zM85 90H16V57h69v33zm-67-2h64V60H18v28z"/></g></svg>