<svg xmlns="http://www.w3.org/2000/svg" width="100" height="100"><path fill-rule="evenodd" clip-rule="evenodd" fill="#898889" d="M50.165 0c-1.72 0-3.107 1.521-3.107 3.304v40.054a6.353 6.353 0 0 0-2.775 5.288v12.557c0 .398 0 .726.066 1.057-11.103 2.709-19.5 13.22-19.697 25.843v.529l50.696-.33c-.07-12.557-8.263-23.132-19.368-25.978.065-.328.065-.723.065-1.12V48.645a6.353 6.353 0 0 0-2.774-5.288V3.304C53.27 1.52 51.883 0 50.165 0zm-.134 100c-6.475 0-12.16-3.57-15.397-8.99h30.73c-3.236 5.42-8.922 8.99-15.333 8.99z"/></svg>