<svg xmlns="http://www.w3.org/2000/svg" width="100" height="100"><path fill-rule="evenodd" clip-rule="evenodd" fill="#898889" d="M88.85 47.832l3.465-3.349H7.685l3.464 3.349h77.702zM55.807 37.318c-.577-.52-.752-1.384-.81-1.673h-9.993c-.057.289-.23 1.097-.865 1.556l-.117.117h-3.177c-1.157 0-2.138 1.04-2.138 2.255 0 4.157 22.587 4.157 22.587 0 0-1.215-.98-2.255-2.137-2.255h-3.35zm-.866-3.35l-.117-2.6h16.062c1.039 0 2.021-.345 2.021-1.442V1.964C72.906.866 71.924 0 70.885 0H29.06c-.984 0-1.964.866-1.964 1.964v27.962c0 1.097.98 1.442 1.964 1.442h16.117l-.117 2.6h9.88zm14.961-7.74H30.1V3.178h39.8v23.05zM88.851 100V49.568H11.149V100h5.144v-3.582H83.65V100h5.2zM20.855 56.037h58.291c.98 0 1.85.403 2.484 1.097s1.039 1.617 1.039 2.657v7.566a3.914 3.914 0 0 1-1.04 2.66 3.322 3.322 0 0 1-2.483 1.097h-58.29a3.318 3.318 0 0 1-2.484-1.097 3.907 3.907 0 0 1-1.04-2.66v-7.566c0-1.04.403-1.964 1.04-2.657a3.318 3.318 0 0 1 2.483-1.097zm34.141 7.51c0 .636-.173 1.212-.46 1.616-.349.464-.807.81-1.388.81h-6.296c-.577 0-1.041-.346-1.387-.81-.288-.404-.462-.98-.462-1.615 0-.581.174-1.157.462-1.56.346-.463.81-.808 1.387-.808h6.296c.58 0 1.04.345 1.387.808.288.403.461.979.461 1.56zM46.91 79.319H19.7v12.016h27.21V79.318zm-11.902 6.006c0 .233-.057.406-.113.522-.118.172-.29.289-.463.289h-2.195c-.174 0-.347-.117-.463-.29-.113-.115-.173-.288-.173-.52 0-.23.06-.403.173-.52.116-.174.29-.29.463-.29h2.195c.173 0 .345.116.463.29.056.117.113.29.113.52zm46.218-6.006H53.957v12.016h27.269V79.318zm-11.903 6.006c0 .233-.115.406-.172.522-.115.172-.289.289-.463.289h-2.194c-.174 0-.346-.117-.463-.29-.113-.115-.172-.288-.172-.52 0-.23.059-.403.172-.52.117-.174.29-.29.463-.29h2.194c.174 0 .348.116.463.29.057.117.172.29.172.52z"/></svg>