<svg xmlns="http://www.w3.org/2000/svg" width="100" height="100"><path fill-rule="evenodd" clip-rule="evenodd" fill="#898889" d="M42.882 0h13.936c6.996 0 12.664 6.092 12.664 13.45v25.03c0 7.359-5.668 13.39-12.664 13.39h-3.44v4.523h14.356c.662 0 1.327.665 1.748 1.75a9.29 9.29 0 0 1 .543 2.051c9.772-.182 7.602-10.013 7.36-19.06h-.362c-.726 0-1.328-.663-1.328-1.388v-1.688c0-.784.602-1.386 1.328-1.386h5.426c.725 0 1.326.602 1.326 1.386v1.688c0 .725-.601 1.387-1.326 1.387h-.48c.12 11.883 2.834 24.49-12.004 24.006-.121.603-.242 1.146-.483 1.629-.421 1.085-1.086 1.81-1.748 1.81H51.811V88.48c4.162.363 8.142 1.57 12.123 4.222.181.844-.059 1.388-.905 1.569-4.043-2.714-8.08-3.801-12.303-4.042v5.368l-.06.362-.422.483-.364.06-.362-.06-.481-.483-.06-.362v-5.368c-4.042.181-7.358.906-11.642 3.62-.843-.182-1.085-.725-.843-1.569 4.16-2.653 7.418-3.498 11.4-3.861V68.577H31.967c-.664 0-1.327-.724-1.749-1.81a10.72 10.72 0 0 1-.485-1.628c-14.594.301-11.88-12.183-11.758-24.006h-.483c-.664 0-1.268-.662-1.268-1.387v-1.688c0-.784.604-1.386 1.268-1.386h5.489c.723 0 1.324.602 1.324 1.386v1.688c0 .725-.601 1.387-1.324 1.387h-.425c0 .725-.06 1.449-.06 2.294-.421 8.683-1.445 15.137 5.973 16.585.362.06.783.122 1.205.122a9.753 9.753 0 0 1 .544-1.991c.06-.06.06-.181.12-.302.422-.904 1.024-1.448 1.63-1.448h14.413V51.87h-3.5c-6.934 0-12.663-6.031-12.663-13.39V13.45C30.22 6.092 35.948 0 42.882 0zm18.7 94.573c.783 0 1.387.18 1.387.36v2.473c0 .243-.604.423-1.387.423-.785 0-1.389-.18-1.389-.423v-2.472c0-.181.604-.36 1.389-.36zm3.377 0c.787 0 1.389.18 1.389.36v2.473c0 .243-.602.423-1.389.423-.783 0-1.387-.18-1.387-.423v-2.472c0-.181.604-.36 1.387-.36zm-30.096-.242c.783 0 1.387.18 1.387.422v2.412c0 .241-.604.424-1.387.424-.784 0-1.388-.183-1.388-.424v-2.412c0-.241.604-.422 1.388-.422zm3.376 0c.787 0 1.387.18 1.387.422v2.412c0 .241-.6.424-1.387.424-.783 0-1.386-.183-1.386-.424v-2.412c0-.241.603-.422 1.386-.422zm9.954 2.412c.724 0 1.386.182 1.386.422v2.412c0 .242-.662.423-1.386.423-.785 0-1.389-.18-1.389-.423v-2.412c0-.24.604-.422 1.389-.422zm3.375 0c.725 0 1.389.182 1.389.422v2.412c0 .242-.664.423-1.389.423-.782 0-1.384-.18-1.384-.423v-2.412c0-.24.602-.422 1.384-.422z"/></svg>