<svg xmlns="http://www.w3.org/2000/svg" width="100" height="100"><path fill="#898889" d="M92.716 10.007v75.496H88.52v11.112c0 1.84-1.471 3.385-3.238 3.385h-1.987c-1.544 0-2.795-1.326-2.795-3.018V85.504H20.382v11.111c0 1.84-1.47 3.385-3.236 3.385h-1.989c-1.545 0-2.794-1.326-2.794-3.018V85.504H8.094V10.007H3.458C1.545 10.007 0 8.388 0 6.33V4.71C0 2.648 1.545.955 3.458.955h93.084C98.455.955 100 2.648 100 4.709v1.62c0 2.06-1.545 3.678-3.458 3.678h-3.826zm-46.505 6.62h9.86c1.325 0 2.428 1.177 2.428 2.58v2.939c0 1.4-1.103 2.576-2.429 2.576h-9.86c-1.323 0-2.429-1.176-2.429-2.576v-2.94c0-1.402 1.106-2.579 2.43-2.579zm-.737 35.398h9.862c1.323 0 2.428 1.176 2.428 2.645v2.871c0 1.47-1.105 2.65-2.428 2.65h-9.862c-1.325 0-2.426-1.18-2.426-2.65V54.67c0-1.469 1.101-2.645 2.426-2.645zM77.04 14.347H23.769v25.167H77.04V14.347zm0 35.395H23.769v25.166H77.04V49.742z"/></svg>