<svg xmlns="http://www.w3.org/2000/svg" width="100" height="100"><path fill-rule="evenodd" clip-rule="evenodd" fill="#898889" d="M57.093 54.746h13.58c3.547 0 6.49 3.124 6.49 6.91v13.402c0 5.829-3.545 6.252-7.451 6.252h-11.72c-3.905 0-7.39-.423-7.39-6.252V61.656c0-3.786 2.883-6.91 6.49-6.91zm-28.126-.3h13.581c3.606 0 6.49 3.065 6.49 6.85V74.76c0 3.784-2.884 6.85-6.49 6.85h-13.58c-3.548 0-6.491-3.066-6.491-6.85V61.297c0-3.786 2.943-6.852 6.49-6.852zM99.82 96.39c.12.3.181.664.181 1.023 0 1.44-1.081 2.586-2.403 2.586h-6.49c-1.323 0-2.405-1.146-2.405-2.586 0-.36.06-.723.18-1.023H11.118c.18.3.24.664.24 1.023 0 1.44-1.081 2.586-2.402 2.586H2.404C1.082 100 0 98.854 0 97.414c0-.36.121-.723.24-1.023V60.755c0-3.125 4.388-5.65 9.797-5.65h9.734v24.22h3.005c.36 1.142 1.323 1.985 2.404 2.583 1.443.722 3.125 1.023 4.688 1.023h11.778c1.563 0 3.306-.301 4.749-1.023 1.021-.598 1.983-1.441 2.402-2.583h2.045c.419 1.142 1.38 1.985 2.403 2.583 1.442.722 3.186 1.023 4.747 1.023h11.72c1.622 0 3.305-.301 4.747-1.023 1.021-.598 1.983-1.441 2.404-2.583h3.486v-24.22h9.795c5.35 0 9.736 2.525 9.736 5.65V96.39h-.06z"/></svg>