<svg xmlns="http://www.w3.org/2000/svg" width="100" height="100"><path fill="#898889" d="M17.068 0h68.727v95.102h-71.59V0h2.863zm27.205 42.276c.678 0 1.282.602 1.282 1.356v7.837c0 .677-.604 1.283-1.282 1.283-.68 0-1.206-.606-1.206-1.283v-7.837c0-.754.527-1.356 1.206-1.356zm11.38 0c.677 0 1.205.602 1.205 1.356v7.837c0 .677-.528 1.283-1.206 1.283-.678 0-1.206-.606-1.206-1.283v-7.837c0-.754.528-1.356 1.206-1.356zM71.25 96.082h7.16V100h-7.16v-3.918zm-49.36 0h7.16V100h-7.16v-3.918zM52.865 6.18v82.666h27.054V6.18H52.864zm-5.802 82.666V6.18H20.007v82.666h27.055z"/></svg>