<svg xmlns="http://www.w3.org/2000/svg" width="100" height="100"><path fill-rule="evenodd" clip-rule="evenodd" fill="#898889" d="M4.916 75.815h20.4c.666 0 1.262.598 1.262 1.33v2.524c0 .732-.596 1.33-1.262 1.33h-.797V100h-4.916v-6.71H4.916V100H0V61.331c0-1.33 1.064-2.393 2.259-2.393h.465c1.197 0 2.192 1.063 2.192 2.326v14.551zm12.426-14.287h13.954v36.613h4.453l.266-30.962h28.503l.464 30.962h4.122V61.528h15.614c1.994.332 1.527-2.391 1.527-3.254v-.464c0-.866-.663-1.595-1.527-1.595H17.342c-.796 0-1.46.73-1.46 1.595v.464c0 .863-.467 3.39 1.46 3.254zm46.713-1.657v3.651l-27.508.332-.068-3.983h27.576zm31.029 15.944H74.683c-.662 0-1.26.598-1.26 1.33v2.524c0 .732.598 1.33 1.26 1.33h.8V100H80.4v-6.71h14.685V100H100V61.331c0-1.33-1.064-2.393-2.326-2.393h-.398c-1.262 0-2.192 1.063-2.192 2.326v14.551zM80.399 90.633v-9.634h14.685v9.634H80.399zm-60.796 0v-9.634H4.916v9.634h14.687z"/></svg>