<svg xmlns="http://www.w3.org/2000/svg" width="100" height="100"><path fill="#898889" d="M17.114 0h68.671v95.066H14.214V0h2.9zm58.302 41.767h.508c.58 0 1.017.51 1.017 1.09v9.424c0 .652-.437 1.09-1.017 1.09h-.508c-.508 0-.941-.438-.941-1.09v-9.425c0-.58.433-1.09.941-1.09zm-55.4 28.935h27.048v-17.33H20.015v17.33zm27.048 1.596H20.015v16.604h27.049V72.298zM20.015 51.776h27.049V35.604H20.015v16.172zm0-17.77h27.049V14.285H20.015v19.723zm0-23.855h27.049V6.164H20.015v3.987zm32.92 0h27.05V6.164h-27.05v3.987zm27.05 4.133h-27.05v74.618h27.05V14.284zM54.458 43.58c0-4.497 0 24.149 0 0zm16.824 52.501h7.106V100h-7.106v-3.919zm-49.383 0h7.105V100H21.9v-3.919z"/></svg>