<svg xmlns="http://www.w3.org/2000/svg" width="100" height="100"><g fill-rule="evenodd" clip-rule="evenodd" fill="#898889"><path d="M89.34 42.354H70.826L83.73 97.056c.42 1.82 1.965 2.944 3.645 2.944h.42c1.824-.285 3.228-1.963 3.228-3.93V42.212c-.562 0-1.123.142-1.683.142zM12.482 0h75.034c4.488 0 8.134 3.787 8.134 8.556v18.657c0 4.764-3.646 8.69-8.134 8.69H12.482c-4.489 0-8.132-3.926-8.132-8.69V8.556C4.35 3.787 7.993 0 12.482 0zM10.52 42.354c-.562 0-1.122-.142-1.686-.142V96.07c0 1.967 1.404 3.645 3.368 3.93h.422c1.68 0 3.226-1.124 3.646-2.944l12.902-54.702H10.52z"/><path d="M35.331 26.701h29.196c14.532 0 26.496 7.67 26.496 16.97v31.706c0 9.39-11.964 17.06-26.496 17.06H35.331c-14.674 0-26.497-7.67-26.497-17.06V43.671c0-9.3 11.823-16.97 26.497-16.97z"/></g></svg>